<svg width="50" height="50" viewBox="0 0 50 50" fill="none" xmlns="http://www.w3.org/2000/svg">
<path d="M22.7273 13.6364H27.2727V22.7273H36.3636V27.2727H27.2727V36.3636H22.7273V27.2727H13.6364V22.7273H22.7273V13.6364Z" fill="#191919"/>
<path fill-rule="evenodd" clip-rule="evenodd" d="M1.39123 21.6273L21.6273 1.39123C23.4823 -0.463744 26.5177 -0.463744 28.3727 1.39123L48.6088 21.6273C50.4637 23.4823 50.4637 26.5177 48.6088 28.3727L28.3727 48.6088C26.5177 50.4637 23.4823 50.4637 21.6273 48.6088L1.39123 28.3727C-0.463744 26.5177 -0.463744 23.4823 1.39123 21.6273ZM25 4.54545L4.54545 25L25 45.4545L45.4545 25L25 4.54545Z" fill="#191919"/>
</svg>
